# xmcd
#
# Track frame offsets:
#	150
#	14261
#	29573
#	46494
#	70843
#	83298
#	101494
#	117301
#	130404
#	142139
#	156778
#	168853
#	181200
#	194409
#	206786
#
# Disc length: 2950 seconds
#
# Revision: 1
# Processed by: cddbd v1.5PL3 Copyright (c) Steve Scherf et al.
# Submitted via: CDmax 2.0
#
DISCID=cf0b840f
DTITLE=Eddie Cusic - I Want To Boogie
DYEAR=1998
DGENRE=Blues
TTITLE0=Pretty Thing
TTITLE1=Reconsider Baby
TTITLE2=Catfish Blues
TTITLE3=Worry You Off My Mind
TTITLE4=Cut You Loose
TTITLE5=Ludella
TTITLE6=Little Angel Child
TTITLE7=Big Boss Man
TTITLE8=You Don't Have To Go
TTITLE9=Hoochie Coochie Man
TTITLE10=I Walk the Water
TTITLE11=Stop Arguing Over Me
TTITLE12=Good Morning Little Schoolgirl
TTITLE13=Feelin' Good
TTITLE14=You Don't Love Me
EXTD=LABEL =HMG - Hightone Records\nID =hmg1005\nUPC =012928-10052-26\nCOP
EXTD=YRIGHT =1998
EXTT0=
EXTT1=
EXTT2=
EXTT3=
EXTT4=
EXTT5=
EXTT6=
EXTT7=
EXTT8=
EXTT9=
EXTT10=
EXTT11=
EXTT12=
EXTT13=
EXTT14=
PLAYORDER=
